# xmcd
#
# Track frame offsets: 
#        150
#        17722
#        39597
#        60327
#        86189
#        98894
#        119362
#        138644
#        159813
#        173740
#        187835
#        214973
#
# Disc length: 3122 seconds
#
# Revision: 0
# Processed by: cddbd v1.5.2PL0 Copyright (c) Steve Scherf et al.
# Submitted via: ExactAudioCopy v0.95a5
#
DISCID=9b0c300c
DTITLE=Various Artist - Blues Revue Blues Music Sampler
DYEAR=2012
DGENRE=Blues
TTITLE0=Love Will Find A Way Out - Bevery McClellan
TTITLE1=Travel Every Mile - Moreland and Arbuckle
TTITLE2=A Better Man - Billy Thompson
TTITLE3=Traveling Fool - Brad Vickers and His Vestopolitans
TTITLE4=Welcome Home - Ruthie Foster
TTITLE5=Nobody's Fault But Mine - Bevery McClellan
TTITLE6=Born In Arkansas - Willie "Big Eyes" Smith and Roger "Hurricane"
TTITLE6=Wilson
TTITLE7=The Blues Don't Tell It All - Shaun Murphy
TTITLE8=Sea of Faces - Shawn Starski
TTITLE9=Don't Say It - Mark Nomad
TTITLE10=King Biscuit Time - Fabrizio Poggi
TTITLE11=When The Tears Finally Come - Greg Poulos
EXTD=
EXTT0=
EXTT1=
EXTT2=
EXTT3=
EXTT4=
EXTT5=
EXTT6=
EXTT7=
EXTT8=
EXTT9=
EXTT10=
EXTT11=
PLAYORDER=
